<!--?xml version="1.0" standalone="no"?-->

<svg version="1.0" xmlns="http://www.w3.org/2000/svg" width="300.000000pt" height="232.000000pt" viewBox="0 0 300.000000 232.000000" preserveAspectRatio="xMidYMid meet">
<g transform="translate(0.000000,232.000000) scale(0.100000,-0.100000)" fill="#333333" stroke="none">
<path class="node" id="node1" d="M1244 2044 c-66 -20 -115 -69 -163 -166 -36 -71 -39 -73 -77 -76 -35
-2 -42 1 -63 33 -39 58 -138 143 -179 154 -80 23 -181 0 -240 -53 -31 -29 -36
-39 -36 -83 -1 -56 18 -87 64 -105 l25 -10 -30 -12 c-52 -19 -73 -35 -94 -70
-19 -30 -22 -50 -22 -168 0 -73 5 -265 11 -426 7 -161 9 -299 6 -307 -4 -10
-27 -15 -83 -17 l-78 -3 -3 -220 c-1 -121 0 -229 2 -241 3 -11 16 -25 28 -30
29 -13 1669 -8 1677 5 4 5 166 8 366 7 l360 -1 3 469 c1 323 -1 473 -9 482 -5
7 -31 24 -57 37 -26 14 -92 55 -147 91 -74 49 -109 66 -134 66 -32 0 -33 1
-18 18 62 68 4 156 -88 131 -35 -10 -96 -62 -128 -108 l-16 -23 -43 34 c-68
55 -92 64 -171 60 -35 -2 -97 -61 -97 -91 0 -18 -6 -21 -39 -21 l-38 0 -7 123
c-7 119 -8 123 -39 155 -42 43 -126 82 -208 96 l-66 11 15 24 c26 38 21 119
-10 172 -15 25 -33 50 -40 56 -23 20 -82 22 -134 7z m131 -36 c29 -27 52 -117
41 -162 -17 -70 -162 -168 -269 -182 -71 -10 -59 11 31 52 137 62 192 115 192
183 0 44 -38 81 -84 81 -37 0 -86 -18 -86 -31 0 -4 -6 -14 -13 -21 -27 -28
-78 -98 -103 -139 -33 -57 -21 -15 22 76 38 80 82 128 139 149 59 22 100 19
130 -6z m-634 -39 c54 -18 133 -84 176 -147 60 -87 60 -91 2 -36 -30 28 -74
65 -99 82 -84 58 -186 67 -230 20 -23 -25 -26 -70 -6 -87 8 -7 76 -28 151 -47
75 -18 144 -39 153 -45 15 -9 14 -10 -3 -4 -11 3 -65 12 -120 20 -98 13 -204
44 -231 66 -19 15 -18 89 2 117 18 27 45 41 104 58 59 16 61 16 101 3z m580
-29 c11 -6 19 -21 19 -36 0 -26 -25 -83 -38 -85 -4 0 -16 -2 -27 -4 -69 -11
-145 -17 -145 -11 0 9 90 130 104 138 16 11 64 10 87 -2z m-583 -59 c18 -6 56
-27 84 -48 l52 -38 -45 -8 c-58 -12 -71 -11 -154 10 -57 15 -71 22 -73 40 -6
43 61 65 136 44z m512 -96 c0 -5 -114 -58 -148 -69 -27 -9 -29 10 -4 39 11 13
31 22 57 23 21 2 41 5 44 7 6 6 51 6 51 0z m-220 -17 c0 -7 -5 -20 -10 -28 -9
-13 -11 -13 -20 0 -16 24 -12 40 10 40 11 0 20 -6 20 -12z m-94 -45 c-1 -2
-22 5 -46 16 -38 17 -40 20 -19 23 21 4 75 -29 65 -39z m598 15 l41 -11 -50
-8 c-27 -4 -83 -9 -124 -12 l-74 -5 38 33 c36 29 42 31 83 23 24 -4 63 -13 86
-20z m-808 -37 c26 -7 22 -9 -36 -19 -36 -6 -96 -14 -135 -18 -65 -6 -69 -5
-54 10 39 42 131 53 225 27z m904 -1 c8 -5 12 -11 10 -13 -5 -4 -314 -27 -360
-27 -22 1 -23 2 -7 11 9 5 21 8 25 5 10 -6 272 21 280 29 8 8 35 6 52 -5z
m-562 -24 c5 -23 -14 -36 -50 -36 -23 0 -28 5 -28 23 0 32 9 38 45 35 20 -2
31 -9 33 -22z m-163 -17 c-11 -4 -38 -8 -60 -8 -22 -1 -101 -11 -175 -23 -156
-24 -194 -27 -198 -13 -2 9 98 25 333 52 39 4 81 6 95 4 22 -4 23 -5 5 -12z
m765 -23 c0 -34 -46 -85 -95 -107 -48 -21 -205 -55 -290 -63 l-60 -5 -82 74
c-46 41 -78 77 -72 80 5 4 15 2 22 -3 7 -5 26 -12 42 -16 17 -4 58 -25 92 -47
75 -47 87 -49 78 -10 -6 28 -5 29 26 28 51 -3 44 17 -13 37 l-53 20 40 8 c53
10 213 25 298 27 65 1 67 0 67 -23z m-820 -56 c-86 -57 -102 -96 -27 -65 14 6
17 2 17 -19 0 -22 -5 -26 -28 -26 -41 0 -225 37 -263 53 -37 15 -65 42 -52 50
14 9 333 54 393 56 34 1 33 0 -40 -49z m369 39 c30 -10 59 -45 47 -56 -5 -5
-116 55 -116 63 0 8 37 4 69 -7z m-310 -47 c-19 -21 -36 -33 -38 -28 -3 8 55
66 67 66 3 0 -11 -17 -29 -38z m164 -4 c24 -24 65 -62 90 -86 l47 -43 0 -173
c0 -95 2 -209 4 -252 4 -56 3 -65 -2 -29 -8 57 -17 75 -37 75 -20 0 -25 24
-26 128 0 53 -4 137 -8 186 l-6 89 -80 74 c-72 66 -77 73 -53 73 18 0 41 -14
71 -42z m627 -73 l0 -95 -74 0 c-77 0 -99 -11 -96 -47 1 -10 2 -150 1 -310
l-1 -293 -47 0 c-44 0 -45 1 -30 18 30 33 22 60 -20 71 -21 6 -48 11 -61 11
-22 0 -22 1 -6 24 21 33 15 65 -18 89 -23 18 -33 19 -62 10 -35 -11 -35 -11
-40 26 -8 53 -12 418 -5 426 4 3 51 13 105 21 194 29 283 62 320 119 9 14 20
25 25 25 5 0 9 -43 9 -95z m-681 40 c89 -72 88 -75 -26 -74 -141 1 -145 3 -88
67 26 29 50 52 53 52 4 0 32 -20 61 -45z m-525 -10 c69 -53 209 -81 454 -91
90 -4 165 -10 167 -14 2 -4 7 -85 11 -181 l7 -175 -25 -16 c-28 -19 -68 -92
-68 -126 0 -29 -5 -28 -40 12 -36 40 -76 59 -120 54 -50 -5 -60 -30 -31 -80
21 -36 21 -40 5 -32 -29 13 -95 9 -136 -9 -51 -22 -50 -48 4 -87 l41 -30 -145
0 -145 0 -7 283 c-4 155 -10 335 -12 400 -3 64 -3 117 1 117 3 0 21 -11 39
-25z m1844 -7 c31 -31 7 -88 -53 -124 -27 -16 -27 -14 8 18 39 38 47 67 22 88
-29 24 -90 -4 -132 -60 -20 -27 -39 -47 -41 -45 -12 12 79 110 117 127 26 11
66 9 79 -4z m-333 -47 c22 -10 49 -28 60 -41 l20 -22 -35 20 c-45 27 -130 38
-160 22 -17 -9 -21 -18 -18 -41 5 -31 -1 -36 -20 -17 -18 18 -14 42 11 65 38
36 85 41 142 14z m295 -4 c0 -17 -74 -77 -94 -77 -35 0 -1 61 44 79 35 14 50
13 50 -2z m-295 -49 c28 -8 34 -13 21 -16 -28 -6 -126 8 -126 19 0 13 57 11
105 -3z m-180 -48 c3 -5 27 -16 53 -24 l47 -15 -110 0 c-83 -1 -120 3 -152 17
-24 9 -43 20 -43 25 0 11 198 9 205 -3z m540 -8 c-22 -2 -44 -7 -50 -12 -6 -5
-17 -5 -25 0 -13 8 -12 10 0 14 34 11 44 11 79 6 l36 -5 -40 -3z m-742 -26
l47 -19 0 -66 c0 -36 3 -164 7 -283 l6 -218 -62 0 -61 0 -1 50 c-1 28 -1 66
-1 85 0 289 3 476 10 473 4 -1 28 -11 55 -22z m524 -2 c-9 -9 -28 6 -21 18 4
6 10 6 17 -1 6 -6 8 -13 4 -17z m323 -9 c17 -9 30 -18 30 -20 0 -3 -29 -5 -65
-5 -52 0 -63 3 -59 14 3 8 18 17 32 19 15 2 28 5 30 6 2 0 16 -6 32 -14z
m-159 -5 c11 0 19 -4 19 -10 0 -15 -52 -11 -80 6 l-25 15 34 -5 c18 -3 42 -6
52 -6z m-440 -24 l-123 -11 1 -215 c1 -118 4 -237 8 -263 l6 -49 -29 4 -29 3
-3 270 -2 270 147 1 148 1 -124 -11z m223 -10 c-3 -9 -13 -16 -22 -16 -13 0
-12 3 3 20 20 23 29 21 19 -4z m136 -28 l70 -53 -6 -175 c-3 -96 -7 -299 -9
-450 -3 -342 0 -312 -27 -308 l-23 3 3 466 3 465 -55 44 c-31 25 -56 48 -56
52 0 20 35 4 100 -44z m346 1 c19 -11 34 -25 34 -30 0 -15 -290 -6 -318 10
-32 17 -21 25 46 32 129 14 203 10 238 -12z m-576 1 c0 -5 15 -10 33 -10 17 0
39 -5 47 -10 11 -7 19 -4 30 10 15 19 15 19 39 -1 l23 -19 -33 -1 c-165 -7
-227 -5 -266 10 -24 9 -43 19 -43 24 0 4 38 7 85 7 50 0 85 -4 85 -10z m-176
-31 l36 -21 0 -117 c0 -65 3 -166 7 -224 l6 -107 -45 0 -45 0 -6 122 c-12 214
-8 368 8 368 2 0 20 -9 39 -21z m389 -56 c3 -16 1 -181 -3 -368 -5 -187 -9
-384 -10 -438 0 -54 -4 -96 -8 -93 -5 3 -52 6 -105 7 l-97 2 0 219 c0 216 0
220 -22 239 -13 10 -33 18 -44 19 -30 0 -33 18 -41 243 l-6 197 165 0 166 0 5
-27z m479 -433 c-1 -250 -6 -458 -10 -462 -5 -5 -89 -7 -188 -6 l-179 3 3 450
c1 248 4 455 7 462 3 9 52 11 187 10 l182 -2 -2 -455z m-1514 288 c22 -22 14
-90 -18 -143 -34 -58 -38 -56 -10 6 11 24 20 56 20 70 0 31 -25 45 -49 27 -9
-7 -18 -14 -20 -15 -2 -1 -12 -26 -22 -55 -14 -41 -18 -47 -19 -26 0 46 31
109 64 129 37 22 38 23 54 7z m-261 -69 c36 -13 71 -46 90 -84 13 -25 8 -23
-30 17 -30 31 -52 46 -62 42 -21 -8 -19 -20 12 -62 l27 -37 -42 39 c-43 41
-58 68 -47 86 8 13 17 13 52 -1z m197 -83 c-14 -31 -28 -56 -30 -54 -5 6 22
102 37 128 27 49 22 -12 -7 -74z m224 62 c19 -19 14 -44 -14 -77 -32 -39 -48
-40 -27 -3 23 40 11 66 -25 57 -15 -3 -37 -16 -50 -28 -17 -16 -22 -17 -17 -5
6 16 43 45 75 60 24 10 45 9 58 -4z m-58 -56 c0 -12 -28 -35 -75 -61 l-40 -22
47 46 c44 43 68 55 68 37z m-393 -41 c13 -8 1 -9 -49 -4 -74 6 -109 -7 -87
-33 16 -20 -1 -17 -23 3 -24 21 -23 32 5 43 27 12 128 6 154 -9z m553 -42 c0
-7 -32 -29 -43 -29 -3 0 -4 11 -4 23 0 20 4 23 23 19 13 -2 24 -8 24 -13z
m-540 1 c21 -7 19 -8 -15 -8 -22 0 -53 4 -70 8 -27 7 -25 8 15 8 25 0 56 -4
70 -8z m456 -9 c-4 -5 -25 -12 -49 -16 -23 -3 -55 -9 -72 -12 -37 -7 -26 8 18
24 38 14 110 17 103 4z m-436 -71 l105 -4 -95 -5 c-52 -4 -205 -4 -340 -1
-160 3 -216 7 -160 10 88 5 307 5 490 0z m235 -7 l35 -17 0 -218 0 -218 -44 0
c-25 0 -47 4 -50 8 -3 5 -8 107 -12 228 -4 141 -11 222 -18 226 -23 15 55 7
89 -9z m739 8 c-73 -12 -646 -23 -670 -14 -30 12 86 18 421 20 180 1 280 -2
249 -6z m-1566 -244 c2 -133 0 -199 -7 -192 -5 6 -11 97 -13 212 -2 135 0 199
7 192 6 -6 11 -95 13 -212z m734 25 c3 -97 3 -192 0 -210 l-4 -32 -348 2 -348
3 -6 35 c-2 19 -5 101 -6 183 0 81 -3 154 -6 162 -16 40 -10 40 358 37 l355
-2 5 -178z m898 -21 l0 -209 -367 -4 c-203 -3 -371 -3 -375 -1 -5 2 -8 94 -8
204 l0 199 38 1 c20 1 163 5 317 8 154 4 306 8 338 9 l57 2 0 -209z"></path>






</g>
<g transform="translate(0.000000,232.000000) scale(0.100000,-0.100000)" fill="#FFFFFF" stroke="none">

<path class="node" id="node9" d="M1245 2014 c-57 -21 -101 -69 -139 -149 -43 -91 -55 -133 -22 -76 25
41 76 111 103 139 7 7 13 17 13 21 0 13 49 31 86 31 46 0 84 -37 84 -81 0 -68
-55 -121 -192 -183 -90 -41 -102 -62 -31 -52 107 14 252 112 269 182 4 15 2
53 -4 84 -19 93 -71 119 -167 84z"></path>
<path class="node" id="node10" d="M640 1966 c-59 -17 -86 -31 -104 -58 -20 -28 -21 -102 -2 -117 27
-22 133 -53 231 -66 55 -8 109 -17 120 -20 17 -6 18 -5 3 4 -9 6 -78 27 -153
45 -75 19 -143 40 -151 47 -20 17 -17 62 6 87 44 47 146 38 230 -20 25 -17 69
-54 99 -82 58 -55 58 -51 -2 36 -43 63 -122 129 -176 147 -40 13 -42 13 -101
-3z"></path>
<path class="node" id="node11" d="M1234 1942 c-14 -8 -104 -129 -104 -138 0 -6 76 0 145 11 11 2 23 4
27 4 13 2 38 59 38 85 0 15 -8 30 -19 36 -23 12 -71 13 -87 2z"></path>
<path class="node" id="node12" d="M622 1874 c-15 -10 -22 -24 -20 -37 2 -18 16 -25 73 -40 83 -21 96
-22 154 -10 l45 8 -52 38 c-78 58 -155 73 -200 41z"></path>
<path class="node" id="node13" d="M1199 1785 c-3 -2 -23 -5 -44 -7 -26 -1 -46 -10 -57 -23 -25 -29 -23
-48 4 -39 34 11 148 64 148 69 0 6 -45 6 -51 0z"></path>
<path class="node" id="node14" d="M990 1768 c0 -7 5 -20 10 -28 9 -13 11 -13 20 0 16 24 12 40 -10 40
-11 0 -20 -6 -20 -12z"></path>
<path class="node" id="node15" d="M871 1762 c-21 -3 -19 -6 19 -23 50 -23 59 -20 27 7 -13 12 -32 18
-46 16z"></path>
<path class="node" id="node16" d="M1365 1735 l-38 -33 74 5 c41 3 97 8 124 12 l50 8 -41 11 c-23 7 -62
16 -86 20 -41 8 -47 6 -83 -23z"></path>
<path class="node" id="node17" d="M556 1706 c-21 -8 -46 -22 -55 -32 -15 -15 -11 -16 54 -10 39 4 99
12 135 18 58 10 62 12 36 19 -62 17 -131 19 -170 5z"></path>
<path class="node" id="node18" d="M1578 1705 c-8 -8 -270 -35 -280 -29 -4 3 -16 0 -25 -5 -16 -9 -15
-10 7 -11 46 0 355 23 360 27 7 6 -23 23 -41 23 -9 0 -18 -2 -21 -5z"></path>
<path class="node" id="node19" d="M997 1694 c-4 -4 -7 -18 -7 -31 0 -18 5 -23 28 -23 36 0 55 13 50 36
-3 19 -56 32 -71 18z"></path>
<path class="node" id="node20" d="M805 1667 c-235 -27 -335 -43 -333 -52 4 -14 42 -11 198 13 74 12
153 22 175 23 22 0 49 4 60 8 18 7 17 8 -5 12 -14 2 -56 0 -95 -4z"></path>
<path class="node" id="node21" d="M1440 1649 c-52 -5 -113 -13 -135 -17 l-40 -8 53 -20 c57 -20 64 -40
13 -37 -31 1 -32 0 -26 -28 9 -39 -3 -37 -78 10 -34 22 -75 43 -92 47 -16 4
-35 11 -42 16 -7 5 -17 7 -22 3 -6 -3 26 -39 72 -80 l82 -74 60 5 c85 8 242
42 290 63 49 22 95 73 95 107 0 23 -2 24 -67 23 -38 -1 -111 -6 -163 -10z"></path>
<path class="node" id="node22" d="M760 1615 c-169 -23 -255 -37 -263 -42 -13 -8 15 -35 52 -50 38 -16
222 -53 263 -53 23 0 28 4 28 26 0 21 -3 25 -17 19 -75 -31 -59 8 27 65 73 49
74 50 40 49 -19 -1 -78 -7 -130 -14z"></path>
<path class="node" id="node23" d="M1150 1626 c0 -8 111 -68 116 -63 12 11 -17 46 -47 56 -32 11 -69 15
-69 7z"></path>
<path class="node" id="node24" d="M901 1582 c-19 -15 -32 -32 -30 -38 2 -5 19 7 38 28 40 45 37 48 -8
10z"></path>
<path class="node" id="node25" d="M1055 1537 l80 -74 6 -89 c4 -49 8 -133 8 -186 1 -104 6 -128 26
-128 20 0 29 -18 37 -75 5 -36 6 -27 2 29 -2 43 -4 157 -4 252 l0 173 -47 43
c-25 24 -66 62 -90 86 -30 28 -53 42 -71 42 -24 0 -19 -7 53 -73z"></path>
<path class="node" id="node26" d="M1666 1565 c-37 -57 -126 -90 -320 -119 -54 -8 -101 -18 -105 -21 -7
-8 -3 -373 5 -426 5 -37 5 -37 40 -26 64 20 115 -44 80 -99 -16 -23 -16 -24 6
-24 13 0 40 -5 61 -11 42 -11 50 -38 20 -71 -15 -17 -14 -18 30 -18 l47 0 1
293 c1 160 0 300 -1 310 -3 36 19 47 96 47 l74 0 0 95 c0 52 -4 95 -9 95 -5 0
-16 -11 -25 -25z"></path>
<path class="node" id="node27" d="M905 1528 c-57 -64 -53 -66 88 -67 86 -1 97 1 89 14 -9 18 -113 105
-124 105 -3 0 -27 -23 -53 -52z"></path>
<path class="node" id="node28" d="M454 1433 c2 -65 8 -245 12 -400 l7 -283 145 0 145 0 -41 30 c-54 39
-55 65 -4 87 41 18 107 22 136 9 16 -8 16 -4 -5 32 -29 50 -19 75 31 80 44 5
84 -14 120 -54 35 -40 40 -41 40 -12 0 34 40 107 68 126 l25 16 -7 175 c-4 96
-9 177 -11 181 -2 4 -77 10 -167 14 -245 10 -385 38 -454 91 -18 14 -36 25
-39 25 -4 0 -4 -53 -1 -117z"></path>
<path class="node" id="node29" d="M2259 1522 c-38 -17 -129 -115 -117 -127 2 -2 21 18 41 45 42 56 103
84 132 60 25 -21 17 -50 -22 -88 -35 -32 -35 -34 -8 -18 60 36 84 93 53 124
-13 13 -53 15 -79 4z"></path>
<path class="node" id="node30" d="M1905 1483 c-27 -7 -65 -43 -65 -63 0 -16 18 -40 30 -40 4 0 5 13 2
29 -3 23 1 32 18 41 30 16 115 5 160 -22 l35 -20 -20 22 c-38 43 -107 66 -160
53z"></path>
<path class="node" id="node31" d="M2250 1469 c-27 -11 -59 -47 -60 -66 0 -22 30 -14 71 19 57 46 51 71
-11 47z"></path>
<path class="node" id="node32" d="M1900 1421 c0 -11 98 -25 126 -19 13 3 7 8 -21 16 -48 14 -105 16
-105 3z"></path>
<path class="node" id="node33" d="M1620 1373 c0 -5 19 -16 43 -25 32 -14 69 -18 152 -17 l110 0 -47 15
c-26 8 -50 19 -53 24 -7 12 -205 14 -205 3z"></path>
<path class="node" id="node34" d="M2319 1372 c-42 -11 -44 -13 -29 -22 8 -5 19 -5 25 0 6 5 28 10 50
12 l40 3 -36 5 c-20 3 -43 4 -50 2z"></path>
<path class="node" id="node35" d="M1559 1141 c-1 -122 -1 -237 -1 -256 0 -19 0 -57 1 -85 l1 -50 61 0
62 0 -6 218 c-4 119 -7 247 -7 283 l0 66 -47 19 c-27 11 -51 21 -55 22 -5 2
-9 -96 -9 -217z"></path>
<path class="node" id="node36" d="M2126 1352 c-3 -6 -1 -14 5 -17 15 -10 25 3 12 16 -7 7 -13 7 -17 1z"></path>
<path class="node" id="node37" d="M2408 1333 c-14 -2 -29 -11 -32 -19 -4 -11 7 -14 59 -14 36 0 65 2
65 5 0 5 -57 36 -62 34 -2 -1 -15 -4 -30 -6z"></path>
<path class="node" id="node38" d="M2250 1316 c28 -17 80 -21 80 -6 0 6 -8 10 -19 10 -10 0 -34 3 -52 6
l-34 5 25 -15z"></path>
<path class="node" id="node39" d="M1702 1035 l3 -270 29 -3 29 -4 -6 49 c-4 26 -7 145 -8 263 l-1 215
123 11 124 11 -148 -1 -147 -1 2 -270z"></path>
<path class="node" id="node40" d="M2075 1290 c-15 -17 -16 -20 -3 -20 9 0 19 7 22 16 10 25 1 27 -19 4z"></path>
<path class="node" id="node41" d="M2130 1302 c0 -4 25 -27 56 -52 l55 -44 -3 -465 -3 -466 23 -3 c27
-4 24 -34 27 308 2 151 6 354 9 450 l6 175 -70 53 c-65 48 -100 64 -100 44z"></path>
<path class="node" id="node42" d="M2338 1271 c-67 -7 -78 -15 -46 -32 28 -16 318 -25 318 -10 0 5 -15
19 -34 30 -35 22 -109 26 -238 12z"></path>
<path class="node" id="node43" d="M1830 1263 c0 -5 19 -15 43 -24 39 -15 101 -17 266 -10 l33 1 -23 19
c-24 20 -24 20 -39 1 -11 -14 -19 -17 -30 -10 -8 5 -30 10 -47 10 -18 0 -33 5
-33 10 0 6 -35 10 -85 10 -47 0 -85 -3 -85 -7z"></path>
<path class="node" id="node44" d="M1776 1234 c-8 -21 -8 -200 1 -352 l6 -122 45 0 45 0 -6 107 c-4 58
-7 159 -7 224 l0 117 -36 21 c-42 25 -40 25 -48 5z"></path>
<path class="node" id="node45" d="M1883 1003 c8 -225 11 -243 41 -243 11 -1 31 -9 44 -19 22 -19 22
-23 22 -239 l0 -219 97 -2 c53 -1 100 -4 105 -7 4 -3 8 39 8 93 1 54 5 251 10
438 4 187 6 352 3 368 l-5 27 -166 0 -165 0 6 -197z"></path>
<path class="node" id="node46" d="M2325 1187 c-3 -7 -6 -214 -7 -462 l-3 -450 179 -3 c99 -1 183 1 188
6 4 4 9 212 10 462 l2 455 -182 2 c-135 1 -184 -1 -187 -10z"></path>
<path class="node" id="node47" d="M1124 1021 c-33 -20 -64 -83 -64 -129 1 -21 5 -15 19 26 10 29 20 54
22 55 2 1 11 8 20 15 24 18 49 4 49 -27 0 -14 -9 -46 -20 -70 -28 -62 -24 -64
10 -6 32 53 40 121 18 143 -16 16 -17 15 -54 -7z"></path>
<path class="node" id="node48" d="M865 960 c-11 -18 4 -45 47 -86 l42 -39 -27 37 c-31 42 -33 54 -12
62 10 4 32 -11 62 -42 38 -40 43 -42 30 -17 -19 38 -54 71 -90 84 -35 14 -44
14 -52 1z"></path>
<path class="node" id="node49" d="M1121 950 c-15 -26 -42 -122 -37 -128 8 -7 57 113 54 133 -3 19 -4
19 -17 -5z"></path>
<path class="node" id="node50" d="M1280 942 c-32 -15 -69 -44 -75 -60 -5 -12 0 -11 17 5 13 12 35 25
50 28 36 9 48 -17 25 -57 -9 -15 -12 -28 -7 -28 14 0 60 60 60 79 0 34 -33 49
-70 33z"></path>
<path class="node" id="node51" d="M1212 845 l-47 -46 40 22 c47 26 75 49 75 61 0 18 -24 6 -68 -37z"></path>
<path class="node" id="node52" d="M733 850 c-28 -11 -29 -22 -5 -43 22 -20 39 -23 23 -3 -22 26 13 39
87 33 50 -5 62 -4 49 4 -26 15 -127 21 -154 9z"></path>
<path class="node" id="node53" d="M1393 793 c0 -26 1 -27 28 -13 26 14 24 27 -5 32 -19 4 -23 1 -23
-19z"></path>
<path class="node" id="node54" d="M815 800 c17 -4 48 -8 70 -8 34 0 36 1 15 8 -14 4 -45 8 -70 8 -40 0
-42 -1 -15 -8z"></path>
<path class="node" id="node55" d="M1253 787 c-44 -16 -55 -31 -18 -24 17 3 49 9 72 12 24 4 45 11 49
16 7 13 -65 10 -103 -4z"></path>
<path class="node" id="node56" d="M430 720 c-56 -3 0 -7 160 -10 135 -3 288 -3 340 1 l95 5 -105 4
c-183 5 -402 5 -490 0z"></path>
<path class="node" id="node57" d="M1066 722 c7 -4 14 -85 18 -226 4 -121 9 -223 12 -228 3 -4 25 -8 50
-8 l44 0 0 218 0 218 -35 17 c-34 16 -112 24 -89 9z"></path>
<path class="node" id="node58" d="M1275 720 c-48 -3 -64 -8 -51 -13 24 -9 597 2 670 14 55 8 -497 8
-619 -1z"></path>
<path class="node" id="node59" d="M308 497 c2 -115 8 -206 13 -212 7 -7 9 59 7 192 -2 117 -7 206 -13
212 -7 7 -9 -57 -7 -192z"></path>
<path class="node" id="node60" d="M343 673 c-3 -7 -3 -20 1 -28 3 -8 6 -81 6 -162 1 -82 4 -164 6 -183
l6 -35 348 -3 348 -2 4 32 c3 18 3 113 0 210 l-5 178 -355 2 c-276 2 -356 0
-359 -9z"></path>
<path class="node" id="node61" d="M1565 679 c-154 -3 -297 -7 -317 -8 l-38 -1 0 -199 c0 -110 3 -202 8
-204 4 -2 172 -2 375 1 l367 4 0 209 0 209 -57 -2 c-32 -1 -184 -5 -338 -9z"></path>
</g>
</svg>